# xmcd
#
# Track frame offsets:
#	150
#	13650
#	29608
#	44862
#	65066
#	79576
#	94152
#	111708
#	130555
#
# Disc length: 1882 seconds
#
# Revision: 1
# Processed by: cddbd v1.5.2PL0 Copyright (c) Steve Scherf et al.
# Submitted via: audiograbber 1.81.03
#
DISCID=7f075809
DTITLE=Sean`McCready - Colour Blind
DYEAR=2004
DGENRE=Country
TTITLE0=The`Man Inside Of Me
TTITLE1=Gifts
TTITLE2=Empty Hands
TTITLE3=Thoughts In Our Heads
TTITLE4=Backseat Driver
TTITLE5=Tears Falling
TTITLE6=Headline News
TTITLE7=Sides Of Love
TTITLE8=Colour Blind
EXTD=
EXTT0=
EXTT1=
EXTT2=
EXTT3=
EXTT4=
EXTT5=
EXTT6=
EXTT7=
EXTT8=
PLAYORDER=
